PathFileType	4	(X/Y/Z)	./resultDataOpenSim/trcMotMarkerGrf/sub06/qtm-04-02.trc
DataRate	CameraRate	NumFrames	NumMarkers	Units	OrigDataRate	OrigDataStartFrame	OrigNumFrames
250.000000	250.000000	8	24	m	250.000000	136	541
Frame#	Time	L.Toe.Tip			R.Toe.Tip			L.Ankle.Lat			R.Ankle.Lat			L.Ankle.Med			R.Ankle.Med			L.Heel			R.Heel			L.Knee.Lat			R.Knee.Lat			L.Knee.Med			R.Knee.Med			L.Thigh.Upper			R.Thigh.Upper			L.ASIS			R.ASIS			V.Sacral			L.Acromium			R.Acromium			C7			L.Elbow			R.Elbow			L.Wrist.Lat			R.Wrist.Lat
		X1	Y1	Z1	X2	Y2	Z2	X3	Y3	Z3	X4	Y4	Z4	X5	Y5	Z5	X6	Y6	Z6	X7	Y7	Z7	X8	Y8	Z8	X9	Y9	Z9	X10	Y10	Z10	X11	Y11	Z11	X12	Y12	Z12	X13	Y13	Z13	X14	Y14	Z14	X15	Y15	Z15	X16	Y16	Z16	X17	Y17	Z17	X18	Y18	Z18	X19	Y19	Z19	X20	Y20	Z20	X21	Y21	Z21	X22	Y22	Z22	X23	Y23	Z23	X24	Y24	Z24

136	0.54	-0.10582044	0.12144043	-0.071973186	-0.80198755	0.035307291	0.10948423	-0.23131917	0.093083539	-0.067942918	-0.93221124	0.070170724	0.12450963	-0.22288782	0.11485228	0.015067264	-0.90592846	0.083394758	0.037670695	-0.26989667	0.034873796	-0.0038947176	-0.98862386	0.051538171	0.059476605	-0.37369626	0.43409638	-0.073228382	-0.72839939	0.40540278	0.15989172	-0.37595169	0.42853705	0.051545828	-0.75304725	0.40984825	0.028931654	-0.57008957	0.76553467	-0.12118545	-0.64516648	0.75868571	0.22701939	-0.50974418	0.81401868	-0.065298535	-0.53322327	0.81223365	0.18380485	-0.70783385	0.88399475	0.047649703	-0.62307849	1.2885983	-0.13794439	-0.59565576	1.2959291	0.22239314	-0.68710393	1.3249603	0.044940216	-0.72964922	0.99607473	-0.16701387	-0.59361345	0.98817588	0.34138949	-0.65581863	0.76939072	-0.22701951	-0.35234276	0.92055963	0.3025519
137	0.544	-0.096468187	0.12067809	-0.070643317	-0.80192465	0.035316424	0.10955259	-0.22175053	0.091490738	-0.067200154	-0.93178896	0.070787694	0.12424586	-0.21383768	0.11318876	0.015922935	-0.90532896	0.083766312	0.037518647	-0.26020466	0.032857561	-0.003626967	-0.98827447	0.052555605	0.058995705	-0.36639785	0.43169496	-0.072521754	-0.72397651	0.40356784	0.15997648	-0.36907135	0.42599337	0.052403754	-0.74786147	0.40809943	0.028982428	-0.56215369	0.76252455	-0.12104174	-0.63994438	0.75710673	0.2266522	-0.50203039	0.8109954	-0.064709446	-0.52756033	0.80954414	0.18477537	-0.70072764	0.88158949	0.047143406	-0.61724177	1.2859997	-0.13807136	-0.58990017	1.2933225	0.22234966	-0.68127022	1.3220265	0.044796891	-0.7242122	0.99374911	-0.16676065	-0.58578729	0.98574066	0.34176144	-0.65160078	0.7669301	-0.22751457	-0.34412144	0.91998091	0.30183339
138	0.548	-0.087409158	0.11960317	-0.069097131	-0.8018543	0.035340973	0.10963367	-0.21252388	0.08970783	-0.066460462	-0.9313239	0.071455677	0.12395547	-0.20515713	0.11131551	0.016809261	-0.90464606	0.084166877	0.037341367	-0.25089894	0.030599934	-0.0036851542	-0.98780041	0.053637367	0.058408858	-0.35903757	0.42937016	-0.071852393	-0.71957085	0.40175287	0.16008272	-0.36213879	0.42355786	0.053161612	-0.74259056	0.40631284	0.029024091	-0.55409167	0.75963146	-0.12092807	-0.63445204	0.75560361	0.22608335	-0.49428979	0.80796486	-0.06405847	-0.52157165	0.8067518	0.18528909	-0.69326266	0.87896306	0.046269149	-0.61127893	1.2833839	-0.13820972	-0.58414196	1.2906891	0.22228764	-0.67540253	1.319086	0.044637684	-0.71876459	0.99139916	-0.16651982	-0.57795126	0.98326503	0.34210343	-0.64744009	0.76440165	-0.22806063	-0.33596783	0.91932038	0.30112209
139	0.552	-0.078658442	0.11821698	-0.067360055	-0.80178372	0.035369446	0.10971281	-0.20364285	0.087735205	-0.065718243	-0.93080938	0.072185055	0.12365875	-0.19688708	0.10919559	0.01768932	-0.90379773	0.084593971	0.037121151	-0.24199097	0.028105032	-0.0040124082	-0.98726712	0.054804319	0.057808983	-0.35156678	0.42712427	-0.071213549	-0.71517428	0.39996025	0.16021335	-0.35512252	0.42124756	0.053791687	-0.73724028	0.40449607	0.029046526	-0.54596564	0.75684686	-0.12080878	-0.62883721	0.75409661	0.22555504	-0.48652494	0.80493885	-0.063341973	-0.51530978	0.80391851	0.18545478	-0.68551209	0.87611829	0.044974029	-0.60532576	1.2807649	-0.13840365	-0.57841524	1.2880281	0.22220479	-0.66950647	1.3162054	0.044484466	-0.71321658	0.98899273	-0.16632357	-0.57010507	0.98076076	0.34241598	-0.6432792	0.76183514	-0.22865757	-0.32787034	0.91857862	0.30042429
140	0.556	-0.070235688	0.11651242	-0.065462814	-0.80171538	0.035387997	0.10977515	-0.19511654	0.085570186	-0.06496525	-0.93025157	0.072983294	0.12337631	-0.18905159	0.10680508	0.018530216	-0.90283273	0.085067897	0.036887785	-0.23356846	0.025441662	-0.004400873	-0.98674217	0.056081349	0.057274418	-0.3440424	0.424931	-0.070629071	-0.71077615	0.39819047	0.16036677	-0.34799281	0.41906574	0.054281191	-0.73181577	0.40264016	0.029069826	-0.53781718	0.75416224	-0.12065966	-0.62342034	0.75254303	0.22539467	-0.4787137	0.80196023	-0.062570546	-0.50911988	0.80118189	0.18572185	-0.67775765	0.87321388	0.043523257	-0.5994211	1.2781619	-0.13866953	-0.57275349	1.2853424	0.22210425	-0.66360003	1.3134216	0.044352328	-0.70746215	0.98650578	-0.16620195	-0.56224799	0.97824728	0.34270291	-0.63907017	0.75925191	-0.22930209	-0.31980685	0.91776224	0.29974417
141	0.56	-0.062156454	0.1144794	-0.063440737	-0.80164132	0.03539038	0.10981153	-0.18695827	0.083208268	-0.064193526	-0.92965931	0.073842888	0.12312019	-0.18161445	0.10416169	0.019337045	-0.90181065	0.085609009	0.036673179	-0.22570638	0.022679564	-0.004657646	-0.98629954	0.057498635	0.056871506	-0.33652823	0.42276774	-0.070127776	-0.70637282	0.39644616	0.16053933	-0.34073245	0.41699695	0.054643558	-0.72632187	0.40073125	0.029122193	-0.5296444	0.75156972	-0.12048926	-0.6185233	0.75098282	0.22575194	-0.47082154	0.79907998	-0.061767828	-0.50324857	0.79863857	0.18639507	-0.67024632	0.87041112	0.042223752	-0.59349656	1.2755796	-0.13899002	-0.5671266	1.2826402	0.22198531	-0.65767969	1.310722	0.044199661	-0.70151577	0.98396181	-0.16613751	-0.55436849	0.97572745	0.34295919	-0.63479909	0.75665776	-0.22998936	-0.31176385	0.91687821	0.29907897
142	0.564	-0.054426023	0.11211118	-0.061330606	-0.80154936	0.035370587	0.10981679	-0.17917963	0.080644164	-0.063399411	-0.92903541	0.074748283	0.1228996	-0.17450875	0.10130697	0.020138135	-0.90072541	0.086222904	0.036489037	-0.21839102	0.019835037	-0.0047412503	-0.98594182	0.059071105	0.056611132	-0.32897996	0.42064196	-0.069704003	-0.70196091	0.39473208	0.16072779	-0.33334262	0.4150074	0.05491357	-0.72077014	0.39876674	0.029212314	-0.52141898	0.74906275	-0.12031826	-0.61402526	0.74937738	0.22629955	-0.46284957	0.79630276	-0.060950591	-0.49741344	0.79618498	0.1872878	-0.66296553	0.86774011	0.04117979	-0.58748327	1.2729973	-0.13934034	-0.56142858	1.2799324	0.22184034	-0.65165541	1.3080324	0.043929156	-0.69553909	0.98142779	-0.1660675	-0.5464462	0.97318816	0.34316751	-0.63046829	0.75405523	-0.23071028	-0.30373116	0.91592517	0.29842345
143	0.568	-0.047043286	0.10940669	-0.059170288	-0.80144265	0.035315342	0.109799	-0.17178472	0.077872151	-0.062584441	-0.92837499	0.075693668	0.12272969	-0.16771304	0.098269207	0.020943287	-0.89956332	0.086903719	0.036338641	-0.21155455	0.016892293	-0.00470336	-0.98553249	0.06076868	0.05640466	-0.32131865	0.41857614	-0.069331187	-0.69753143	0.39304807	0.16092968	-0.32583494	0.41305292	0.055130765	-0.71518213	0.39675667	0.029331656	-0.51312298	0.74663451	-0.12015518	-0.60894267	0.74735974	0.22617709	-0.45484509	0.79359063	-0.060125399	-0.49103556	0.79362087	0.18791782	-0.65570206	0.8651261	0.040310299	-0.58135805	1.2703855	-0.13970677	-0.55556588	1.2772288	0.22166211	-0.64544203	1.3052791	0.043488499	-0.68967848	0.97895552	-0.16595184	-0.53847821	0.97063063	0.34331372	-0.62606671	0.75144836	-0.23144724	-0.29570673	0.91489586	0.29777895
